<mxfile host="app.diagrams.net" agent="Mozilla/5.0 (Windows NT 10.0; Win64; x64) AppleWebKit/537.36 (KHTML, like Gecko) Chrome/135.0.0.0 Safari/537.36" version="27.0.4">
  <diagram name="Página-1" id="ZKTRITUe0--W6lRKuFFx">
    <mxGraphModel dx="1665" dy="837" grid="1" gridSize="10" guides="1" tooltips="1" connect="1" arrows="1" fold="1" page="1" pageScale="1" pageWidth="827" pageHeight="1169" math="0" shadow="0">
      <root>
        <mxCell id="0" />
        <mxCell id="1" parent="0" />
        <mxCell id="-RB-z1-mnymnpjt6W76Z-1" value="" style="rounded=0;whiteSpace=wrap;html=1;" vertex="1" parent="1">
          <mxGeometry x="400" y="380" width="200" height="100" as="geometry" />
        </mxCell>
        <mxCell id="-RB-z1-mnymnpjt6W76Z-2" value="" style="rounded=0;whiteSpace=wrap;html=1;" vertex="1" parent="1">
          <mxGeometry x="1060" y="380" width="200" height="100" as="geometry" />
        </mxCell>
        <mxCell id="-RB-z1-mnymnpjt6W76Z-3" value="Usuário" style="text;strokeColor=none;fillColor=none;html=1;align=center;verticalAlign=middle;whiteSpace=wrap;rounded=0;fontSize=16;" vertex="1" parent="1">
          <mxGeometry x="455" y="397.5" width="90" height="65" as="geometry" />
        </mxCell>
        <mxCell id="-RB-z1-mnymnpjt6W76Z-5" value="" style="endArrow=none;html=1;rounded=0;fontSize=12;startSize=8;endSize=8;curved=1;exitX=1;exitY=0.5;exitDx=0;exitDy=0;entryX=0;entryY=0.5;entryDx=0;entryDy=0;" edge="1" parent="1" source="-RB-z1-mnymnpjt6W76Z-1" target="-RB-z1-mnymnpjt6W76Z-2">
          <mxGeometry width="50" height="50" relative="1" as="geometry">
            <mxPoint x="830" y="520" as="sourcePoint" />
            <mxPoint x="1080" y="510" as="targetPoint" />
          </mxGeometry>
        </mxCell>
        <mxCell id="-RB-z1-mnymnpjt6W76Z-6" value="" style="rhombus;whiteSpace=wrap;html=1;" vertex="1" parent="1">
          <mxGeometry x="740" y="380" width="180" height="100" as="geometry" />
        </mxCell>
        <mxCell id="-RB-z1-mnymnpjt6W76Z-7" value="Consulta" style="text;strokeColor=none;fillColor=none;html=1;align=center;verticalAlign=middle;whiteSpace=wrap;rounded=0;fontSize=16;" vertex="1" parent="1">
          <mxGeometry x="800" y="415" width="60" height="30" as="geometry" />
        </mxCell>
        <mxCell id="-RB-z1-mnymnpjt6W76Z-8" value="Dados" style="text;strokeColor=none;fillColor=none;html=1;align=center;verticalAlign=middle;whiteSpace=wrap;rounded=0;fontSize=16;" vertex="1" parent="1">
          <mxGeometry x="1130" y="415" width="60" height="30" as="geometry" />
        </mxCell>
        <mxCell id="-RB-z1-mnymnpjt6W76Z-9" value="1" style="text;strokeColor=none;fillColor=none;html=1;align=center;verticalAlign=middle;whiteSpace=wrap;rounded=0;fontSize=16;" vertex="1" parent="1">
          <mxGeometry x="590" y="410" width="50" height="22.5" as="geometry" />
        </mxCell>
        <mxCell id="-RB-z1-mnymnpjt6W76Z-12" value="N" style="text;strokeColor=none;fillColor=none;html=1;align=center;verticalAlign=middle;whiteSpace=wrap;rounded=0;fontSize=16;" vertex="1" parent="1">
          <mxGeometry x="1020" y="406.25" width="60" height="30" as="geometry" />
        </mxCell>
        <mxCell id="-RB-z1-mnymnpjt6W76Z-19" value="" style="endArrow=none;html=1;rounded=0;fontSize=12;startSize=8;endSize=8;curved=1;" edge="1" parent="1">
          <mxGeometry width="50" height="50" relative="1" as="geometry">
            <mxPoint x="450.34" y="550" as="sourcePoint" />
            <mxPoint x="450" y="480" as="targetPoint" />
            <Array as="points" />
          </mxGeometry>
        </mxCell>
        <mxCell id="-RB-z1-mnymnpjt6W76Z-20" value="" style="endArrow=none;html=1;rounded=0;fontSize=12;startSize=8;endSize=8;curved=1;" edge="1" parent="1">
          <mxGeometry width="50" height="50" relative="1" as="geometry">
            <mxPoint x="540" y="560" as="sourcePoint" />
            <mxPoint x="540" y="480" as="targetPoint" />
            <Array as="points">
              <mxPoint x="540" y="520" />
            </Array>
          </mxGeometry>
        </mxCell>
        <mxCell id="-RB-z1-mnymnpjt6W76Z-31" value="" style="ellipse;whiteSpace=wrap;html=1;aspect=fixed;" vertex="1" parent="1">
          <mxGeometry x="440" y="550" width="20" height="20" as="geometry" />
        </mxCell>
        <mxCell id="-RB-z1-mnymnpjt6W76Z-33" value="" style="ellipse;whiteSpace=wrap;html=1;aspect=fixed;" vertex="1" parent="1">
          <mxGeometry x="530" y="550" width="20" height="20" as="geometry" />
        </mxCell>
        <mxCell id="-RB-z1-mnymnpjt6W76Z-34" value="E-mail" style="text;strokeColor=none;fillColor=none;html=1;align=center;verticalAlign=middle;whiteSpace=wrap;rounded=0;fontSize=16;" vertex="1" parent="1">
          <mxGeometry x="420" y="570" width="60" height="30" as="geometry" />
        </mxCell>
        <mxCell id="-RB-z1-mnymnpjt6W76Z-35" value="Senha" style="text;strokeColor=none;fillColor=none;html=1;align=center;verticalAlign=middle;whiteSpace=wrap;rounded=0;fontSize=16;" vertex="1" parent="1">
          <mxGeometry x="510" y="570" width="60" height="30" as="geometry" />
        </mxCell>
        <mxCell id="-RB-z1-mnymnpjt6W76Z-36" value="" style="endArrow=none;html=1;rounded=0;fontSize=12;startSize=8;endSize=8;curved=1;" edge="1" parent="1">
          <mxGeometry width="50" height="50" relative="1" as="geometry">
            <mxPoint x="1160" y="560" as="sourcePoint" />
            <mxPoint x="1160" y="480" as="targetPoint" />
            <Array as="points">
              <mxPoint x="1160" y="520" />
            </Array>
          </mxGeometry>
        </mxCell>
        <mxCell id="-RB-z1-mnymnpjt6W76Z-37" value="" style="ellipse;whiteSpace=wrap;html=1;aspect=fixed;" vertex="1" parent="1">
          <mxGeometry x="1150" y="550" width="20" height="20" as="geometry" />
        </mxCell>
        <mxCell id="-RB-z1-mnymnpjt6W76Z-38" value="Luminosidade" style="text;strokeColor=none;fillColor=none;html=1;align=center;verticalAlign=middle;whiteSpace=wrap;rounded=0;fontSize=15;" vertex="1" parent="1">
          <mxGeometry x="1211" y="570" width="60" height="30" as="geometry" />
        </mxCell>
        <mxCell id="-RB-z1-mnymnpjt6W76Z-39" value="" style="endArrow=none;html=1;rounded=0;fontSize=12;startSize=8;endSize=8;curved=1;" edge="1" parent="1">
          <mxGeometry width="50" height="50" relative="1" as="geometry">
            <mxPoint x="1080" y="560" as="sourcePoint" />
            <mxPoint x="1080" y="480" as="targetPoint" />
            <Array as="points">
              <mxPoint x="1080" y="520" />
            </Array>
          </mxGeometry>
        </mxCell>
        <mxCell id="-RB-z1-mnymnpjt6W76Z-40" value="" style="ellipse;whiteSpace=wrap;html=1;aspect=fixed;" vertex="1" parent="1">
          <mxGeometry x="1070" y="550" width="20" height="20" as="geometry" />
        </mxCell>
        <mxCell id="-RB-z1-mnymnpjt6W76Z-41" value="Temperatura" style="text;strokeColor=none;fillColor=none;html=1;align=center;verticalAlign=middle;whiteSpace=wrap;rounded=0;fontSize=15;" vertex="1" parent="1">
          <mxGeometry x="1050" y="560" width="60" height="50" as="geometry" />
        </mxCell>
        <mxCell id="-RB-z1-mnymnpjt6W76Z-46" value="" style="endArrow=none;html=1;rounded=0;fontSize=12;startSize=8;endSize=8;curved=1;" edge="1" parent="1">
          <mxGeometry width="50" height="50" relative="1" as="geometry">
            <mxPoint x="1240" y="560" as="sourcePoint" />
            <mxPoint x="1240" y="480" as="targetPoint" />
            <Array as="points">
              <mxPoint x="1240" y="520" />
            </Array>
          </mxGeometry>
        </mxCell>
        <mxCell id="-RB-z1-mnymnpjt6W76Z-47" value="" style="ellipse;whiteSpace=wrap;html=1;aspect=fixed;" vertex="1" parent="1">
          <mxGeometry x="1231" y="550" width="20" height="20" as="geometry" />
        </mxCell>
        <mxCell id="-RB-z1-mnymnpjt6W76Z-48" value="Umidade" style="text;strokeColor=none;fillColor=none;html=1;align=center;verticalAlign=middle;whiteSpace=wrap;rounded=0;fontSize=15;" vertex="1" parent="1">
          <mxGeometry x="1130" y="570" width="60" height="30" as="geometry" />
        </mxCell>
        <mxCell id="-RB-z1-mnymnpjt6W76Z-55" value="" style="endArrow=none;html=1;rounded=0;fontSize=12;startSize=8;endSize=8;curved=1;" edge="1" parent="1" target="-RB-z1-mnymnpjt6W76Z-56">
          <mxGeometry width="50" height="50" relative="1" as="geometry">
            <mxPoint x="1260" y="406.25" as="sourcePoint" />
            <mxPoint x="1370" y="406" as="targetPoint" />
          </mxGeometry>
        </mxCell>
        <mxCell id="-RB-z1-mnymnpjt6W76Z-56" value="" style="shape=waypoint;sketch=0;fillStyle=solid;size=18;pointerEvents=1;points=[];fillColor=none;resizable=0;rotatable=0;perimeter=centerPerimeter;snapToPoint=1;" vertex="1" parent="1">
          <mxGeometry x="1360" y="396" width="20" height="20" as="geometry" />
        </mxCell>
        <mxCell id="-RB-z1-mnymnpjt6W76Z-57" value="id" style="text;strokeColor=none;fillColor=none;html=1;align=center;verticalAlign=middle;whiteSpace=wrap;rounded=0;fontSize=15;" vertex="1" parent="1">
          <mxGeometry x="1360" y="391" width="60" height="30" as="geometry" />
        </mxCell>
        <mxCell id="-RB-z1-mnymnpjt6W76Z-59" value="" style="endArrow=none;html=1;rounded=0;fontSize=12;startSize=8;endSize=8;curved=1;" edge="1" parent="1">
          <mxGeometry width="50" height="50" relative="1" as="geometry">
            <mxPoint x="1260" y="460" as="sourcePoint" />
            <mxPoint x="1370" y="460" as="targetPoint" />
          </mxGeometry>
        </mxCell>
        <mxCell id="-RB-z1-mnymnpjt6W76Z-60" value="" style="ellipse;whiteSpace=wrap;html=1;aspect=fixed;" vertex="1" parent="1">
          <mxGeometry x="1360" y="450" width="20" height="20" as="geometry" />
        </mxCell>
        <mxCell id="-RB-z1-mnymnpjt6W76Z-61" value="Data_hora" style="text;strokeColor=none;fillColor=none;html=1;align=center;verticalAlign=middle;whiteSpace=wrap;rounded=0;fontSize=15;" vertex="1" parent="1">
          <mxGeometry x="1390" y="445" width="60" height="30" as="geometry" />
        </mxCell>
      </root>
    </mxGraphModel>
  </diagram>
</mxfile>
